<?xml version="1.0" encoding="UTF-8"?> <svg xmlns="http://www.w3.org/2000/svg" xmlns:xlink="http://www.w3.org/1999/xlink" version="1.1" id="Laag_1" x="0px" y="0px" viewBox="0 0 1000 875" style="enable-background:new 0 0 1000 875;" xml:space="preserve"> <style type="text/css"> .st0{fill:#020203;} </style> <g> <g> <path class="st0" d="M154.4,64.3c49.1,0,89.1,40,89.1,89.1s-40,89.1-89.1,89.1s-89.1-40-89.1-89.1S105.3,64.3,154.4,64.3 M154.4,0 C69.7,0,1,68.7,1,153.4s68.7,153.4,153.4,153.4s153.4-68.7,153.4-153.4S239.1,0,154.4,0L154.4,0z"></path> </g> <g> <path class="st0" d="M696.4,875c-54.8,0-105.2-10.1-151.3-30.3c-46.1-20.2-86.1-47.7-120-82.7c-33.9-34.9-60.4-76.2-79.4-123.7 C326.6,590.8,317,540,317,486v-2.2c0-53.3,9.5-103.8,28.6-151.3c19.1-47.6,45.6-89.2,79.4-124.8c33.9-35.7,74.2-63.8,121-84.3 c46.8-20.5,98-30.8,153.5-30.8c34.6,0,65.7,2.9,93.5,8.6c27.7,5.8,53.5,13.9,77.3,24.3c23.8,10.5,45.7,23.1,65.9,37.8 c20.2,14.8,39.6,31.2,58.4,49.2l-58.4,62.7c-32.4-30.3-67.2-55.1-104.3-74.6c-37.1-19.5-81.6-29.2-133.5-29.2 c-41.8,0-80.5,7.9-116.2,23.8c-35.7,15.9-66.7,37.8-92.9,65.9c-26.3,28.1-46.8,61.1-61.6,98.9c-14.8,37.8-22.2,78.4-22.2,121.6 v2.2c0,44,7.4,84.8,22.2,122.7c14.8,37.8,35.3,70.8,61.6,98.9c26.3,28.1,57.3,50.3,92.9,66.5c35.7,16.2,74.4,24.3,116.2,24.3 c51.9,0,96.5-9.5,134-28.6c37.5-19.1,74.2-45.9,110.2-80.5l56.2,55.1c-19.5,20.2-39.8,38.4-61.1,54.6 c-21.3,16.2-44.1,30.1-68.6,41.6c-24.5,11.5-50.8,20.5-78.9,27C762.3,871.8,731,875,696.4,875z"></path> </g> </g> </svg> 